<svg xmlns="http://www.w3.org/2000/svg" viewBox="0 0 1024 1024" width="1024" height="1024">
  <defs>
    <filter id="shadow" x="-10%" y="-10%" width="120%" height="125%"><feDropShadow dx="0" dy="14" stdDeviation="16" flood-color="#000" flood-opacity="0.38"/></filter>
    <filter id="glow" x="-60%" y="-60%" width="220%" height="220%"><feGaussianBlur stdDeviation="18"/></filter>
    <linearGradient id="sheen" x1="0" y1="0" x2="0" y2="1"><stop offset="0" stop-color="#fff" stop-opacity="0.14"/><stop offset="0.45" stop-color="#fff" stop-opacity="0"/></linearGradient>
    <linearGradient id="plate" x1="0" y1="0" x2="0" y2="1"><stop offset="0" stop-color="#1d2540"/><stop offset="1" stop-color="#0b0e18"/></linearGradient>
    <linearGradient id="cap" x1="0" y1="0" x2="0" y2="1"><stop offset="0" stop-color="#6f8fc9"/><stop offset="1" stop-color="#304a7c"/></linearGradient>
    <linearGradient id="stem" x1="0" y1="0" x2="1" y2="0"><stop offset="0" stop-color="#b8c7e6"/><stop offset="0.5" stop-color="#eef2fa"/><stop offset="1" stop-color="#b8c7e6"/></linearGradient>
  </defs>
  <g filter="url(#shadow)"><rect x="100" y="100" width="824" height="824" rx="186" fill="url(#plate)"/></g>
  <rect x="100" y="100" width="824" height="824" rx="186" fill="url(#sheen)"/>
  <rect x="101" y="101" width="822" height="822" rx="185" fill="none" stroke="#fff" stroke-opacity="0.14" stroke-width="2"/>
  <ellipse cx="512" cy="380" rx="320" ry="260" fill="#4b6596" opacity="0.4" filter="url(#glow)"/>
  <path d="M466 548 C472 610 468 650 446 704 L578 704 C556 650 552 610 558 548 Z" fill="url(#stem)"/>
  <path d="M234 526 C234 326 372 214 512 214 C652 214 790 326 790 526 C790 554 746 566 700 566 L324 566 C278 566 234 554 234 526 Z" fill="url(#cap)"/>
  <g stroke="#eaf0fb" stroke-opacity="0.85" stroke-width="9" stroke-linecap="round">
    <path d="M512 250 L410 290"/>
    <path d="M512 250 L614 290"/>
    <path d="M512 250 L512 340"/>
    <path d="M410 290 L330 380"/>
    <path d="M614 290 L694 380"/>
    <path d="M410 290 L512 340"/>
    <path d="M614 290 L512 340"/>
    <path d="M410 290 L440 400"/>
    <path d="M614 290 L584 400"/>
    <path d="M330 380 L300 470"/>
    <path d="M694 380 L724 470"/>
    <path d="M330 380 L440 400"/>
    <path d="M694 380 L584 400"/>
    <path d="M440 400 L512 340"/>
    <path d="M584 400 L512 340"/>
    <path d="M440 400 L584 400"/>
    <path d="M300 470 L400 500"/>
    <path d="M724 470 L624 500"/>
    <path d="M440 400 L400 500"/>
    <path d="M584 400 L624 500"/>
    <path d="M440 400 L512 470"/>
    <path d="M584 400 L512 470"/>
    <path d="M512 340 L512 470"/>
    <path d="M400 500 L512 470"/>
    <path d="M624 500 L512 470"/>
  </g>
  <g>
    <circle cx="512" cy="250" r="24" fill="#f2a200" stroke="#304a7c" stroke-width="6"/>
    <circle cx="410" cy="290" r="14" fill="#eef2fa" stroke="#304a7c" stroke-width="6"/>
    <circle cx="614" cy="290" r="14" fill="#eef2fa" stroke="#304a7c" stroke-width="6"/>
    <circle cx="330" cy="380" r="24" fill="#e2231a" stroke="#304a7c" stroke-width="6"/>
    <circle cx="694" cy="380" r="24" fill="#2fae3e" stroke="#304a7c" stroke-width="6"/>
    <circle cx="300" cy="470" r="14" fill="#eef2fa" stroke="#304a7c" stroke-width="6"/>
    <circle cx="724" cy="470" r="14" fill="#eef2fa" stroke="#304a7c" stroke-width="6"/>
    <circle cx="440" cy="400" r="14" fill="#eef2fa" stroke="#304a7c" stroke-width="6"/>
    <circle cx="584" cy="400" r="14" fill="#eef2fa" stroke="#304a7c" stroke-width="6"/>
    <circle cx="512" cy="340" r="14" fill="#eef2fa" stroke="#304a7c" stroke-width="6"/>
    <circle cx="400" cy="500" r="14" fill="#eef2fa" stroke="#304a7c" stroke-width="6"/>
    <circle cx="624" cy="500" r="14" fill="#eef2fa" stroke="#304a7c" stroke-width="6"/>
    <circle cx="512" cy="470" r="14" fill="#eef2fa" stroke="#304a7c" stroke-width="6"/>
  </g>
  <g fill="none" stroke="#7f9bd1" stroke-width="12" stroke-linecap="round" stroke-dasharray="1 28">
    <path d="M512 704 L512 850"/>
    <path d="M500 712 C450 740 400 750 340 744"/>
    <path d="M524 712 C574 740 624 750 684 744"/>
    <path d="M500 740 C460 790 430 820 390 850"/>
    <path d="M524 740 C564 790 594 820 634 850"/>
  </g>
</svg>
